<?xml version="1.0" encoding="utf-8"?>
<!-- Generator: Adobe Illustrator 28.0.0, SVG Export Plug-In . SVG Version: 6.00 Build 0)  -->
<svg version="1.1" id="Capa_1" xmlns="http://www.w3.org/2000/svg" xmlns:xlink="http://www.w3.org/1999/xlink" x="0px" y="0px"
	 viewBox="0 0 512 512" style="enable-background:new 0 0 512 512;" xml:space="preserve">
<style type="text/css">
	.st0{fill:#FFFFFF;}
	.st1{fill:#39B54A;}
</style>
<g>
	<path class="st0" d="M103.15,354.4c-0.34,2.7,0,18.87-10.11,27.62c-9.43,7.75-22.91,7.41-34.03,7.41H11.19V151.6h55.58
		c9.77,0,20.21,0,27.96,7.07c8.42,8.08,8.42,19.2,8.76,40.42c0,4.04,0.34,8.09,0.34,12.13c0,7.41-0.34,14.82-0.67,22.23
		c0,1.35,0.34,11.79-3.03,18.53c-2.36,5.05-7.75,8.42-12.8,9.77c-3.37,1.01-9.77,2.02-9.77,2.02c8.42,0.67,18.19,3.03,22.57,10.78
		c3.71,6.74,3.03,15.83,3.37,32.34c0,6.06,0.34,12.13,0.34,18.53C103.83,335.2,103.83,344.63,103.15,354.4z M71.83,193.03
		c-0.34-6.4-1.35-9.43-3.37-11.12c-2.36-2.02-5.73-2.02-11.46-2.02h-15.5v71.42h12.13c9.77,0,16.84-0.34,18.19-12.13
		c0.67-4.72,1.01-12.46,1.01-23.92C72.84,207.86,72.5,200.45,71.83,193.03z M72.84,294.77c-0.34-4.38-0.67-11.45-4.04-14.82
		c-2.7-2.36-6.74-2.69-9.77-2.69H41.51v82.87h16.17c7.07,0,13.47,0.67,14.82-8.09c0.34-3.71,1.01-19.54,1.01-33.35
		C73.51,310.6,73.17,302.86,72.84,294.77z"/>
	<path class="st0" d="M118.45,389.43V235.82c0-14.88,12.07-26.95,26.95-26.95h0v180.57H118.45z"/>
	<path class="st0" d="M118.79,174.65v-22.05h26.95v49h0C130.85,201.61,118.79,189.54,118.79,174.65z"/>
	<path class="st0" d="M165.03,389.43V151.6h27.62v237.84H165.03z"/>
	<rect x="213.44" y="151.6" class="st0" width="27.62" height="237.84"/>
	<g>
		<path class="st1" d="M265.06,318.24c5.01-12.53,13.04-26.1,24.08-40.71v-68.66c-14.88,0-26.95,12.07-26.95,26.95v90.64
			C263.02,323.71,263.96,320.97,265.06,318.24z"/>
		<path class="st1" d="M262.52,174.66v-22.05h26.95v49h0C274.59,201.61,262.52,189.54,262.52,174.66z"/>
		<g>
			<path class="st1" d="M387.69,284.44c-9.04,16.24-20.9,29.71-35.54,40.42c-14.65,10.71-30.81,18.47-48.46,23.26
				c-0.21,3.41-0.01,6.82,0.59,10.23c0.6,3.41,1.59,6.62,3,9.63c1.4,3.01,3.3,5.62,5.71,7.83c2.4,2.21,5.41,3.72,9.02,4.52
				c4.41,1.01,9.48,0.87,15.19-0.43c5.72-1.3,11.74-3.9,18.06-7.8c6.32-3.9,12.79-9.06,19.42-15.47
				c6.63-6.41,13.15-14.22,19.58-23.44c3.21-4.61,6.13-9.12,8.74-13.53c2.61-4.41,5.02-8.62,7.23-12.63c0.8-1,1.75-1.55,2.86-1.65
				c1.1-0.1,2.11,0.15,3.01,0.76c0.9,0.6,1.55,1.41,1.95,2.41c0.4,1.01,0.2,2.21-0.61,3.61c-2.82,4.41-5.83,9.22-9.04,14.43
				c-3.22,5.21-6.78,10.67-10.7,16.38c-3.92,5.71-8.24,11.42-12.96,17.13c-4.72,5.71-9.99,11.17-15.81,16.38
				c-5.83,5.21-11.44,9.16-16.86,11.86c-5.42,2.7-10.54,4.6-15.35,5.7c-4.81,1.09-9.13,1.69-12.94,1.79
				c-3.81,0.09-6.92,0.14-9.33,0.14c-13.64-0.02-24.26-3.64-31.88-10.87c-7.62-7.23-11.71-17.06-12.3-29.5
				c-0.39-11.43,1.68-22.81,6.21-34.14c4.52-11.32,11.81-23.6,21.85-36.83c3.21-4.21,7.53-8.76,12.95-13.67
				c5.42-4.91,11.44-9.46,18.07-13.67c6.62-4.2,13.64-7.6,21.07-10.2c7.42-2.6,14.84-3.79,22.27-3.58
				c4.81,0.01,8.97,1.12,12.48,3.32c3.5,2.21,6.06,5.17,7.66,8.88c1.6,3.72,2.05,8.03,1.34,12.94
				C393.46,273.57,391.31,278.83,387.69,284.44z M305.2,337.29c-0.2,0.4-0.3,0.8-0.3,1.2c16.25-4.59,30.9-11.95,43.95-22.06
				c13.05-10.11,23.59-22.78,31.63-38.02c2.81-5.81,3.52-10.77,2.12-14.89c-1.4-4.11-4.91-5.67-10.52-4.67
				c-8.43,1.6-16.36,5.4-23.78,11.4c-7.43,6.01-14.06,12.92-19.88,20.73c-5.83,7.82-10.75,15.89-14.77,24.2
				C309.63,323.51,306.81,330.88,305.2,337.29z"/>
		</g>
		<g>
			<path class="st1" d="M497.99,187.84c0,0-1.37-7.89-1.37-7.89c-8.79,4.14-19.19,9.01-28.58,13.51
				c-3.67-8.14-12.06-26.72-12.06-26.72l-3.29-7.3c-3.2,2.21-15.71,10.83-23.94,16.5l-11.72-25.55c0,0-3.13-6.81-3.13-6.81
				c-6.9,4.38-14.02,8.81-20.99,13.23c-4.47-8.11-11.42-20.72-13.33-24.2c-2.42,2.48-7.67,7.89-12.02,12.36
				c-2.29-4.13-4.57-8.27-6.89-12.39l-4.8-8.5c-2.06,3.58-6.26,10.93-9.65,16.85c-4.28-5.47-9.7-12.39-9.7-12.39l-9.98-12.75
				c0,0,1.38,15.98,1.38,15.98c2.9,32,5.42,91.22-18.35,115.35c23.62-18.74,28.4-66.7,28.3-100.6l4.93,6.68l4.43,6.01l4.07-6.48
				l4.09-6.51c3.12,5.99,6.31,12.04,9.4,17.9l5.61-5.45l6.24-6.07c4.11,7.89,10.02,19.23,11.48,22.04
				c6.65-3.94,13.39-8.04,20.04-12.11l11.78,26.15l3.26,7.25c3.31-2.28,15.69-10.76,23.92-16.4c4.92,10.77,13.33,29.25,14.54,31.79
				c0,0,6.06-3.05,6.06-3.05c5.49-2.79,12.77-6.39,19.26-9.69c4.29,35.35-1,72.64-18.71,103.76c-7.72,13.6-17.92,25.7-29.82,35.94
				c-6.02,5.1-12.43,9.81-19.17,14.08c33.34-14.92,59.54-44.61,71.2-79.27C499.71,245.81,502.27,216.34,497.99,187.84z"/>
			<path class="st1" d="M468.81,258.73c-22.42-29.05-63.35-49.82-99.37-54.91c35.54,18.02,72.37,36.56,103.79,61.26
				C471.84,262.92,470.34,260.82,468.81,258.73z"/>
			<path class="st1" d="M392.4,237.43c22.96,15.15,47.62,26.41,68.89,44.06C450,258.38,416.96,241.59,392.4,237.43z"/>
		</g>
	</g>
</g>
</svg>
