<?xml version="1.0" encoding="utf-8"?>
<!-- Generator: Adobe Illustrator 28.0.0, SVG Export Plug-In . SVG Version: 6.00 Build 0)  -->
<svg version="1.1" id="Capa_1" xmlns="http://www.w3.org/2000/svg" xmlns:xlink="http://www.w3.org/1999/xlink" x="0px" y="0px"
	 viewBox="0 0 512 512" style="enable-background:new 0 0 512 512;" xml:space="preserve">
<style type="text/css">
	.st0{fill:#39B54A;}
</style>
<g>
	<path class="st0" d="M111.69,356.7c-0.33,2.66,0,18.6-9.96,27.24c-9.3,7.64-22.59,7.31-33.55,7.31H21V156.72h54.81
		c9.63,0,19.93,0,27.57,6.98c8.3,7.97,8.3,18.93,8.64,39.86c0,3.99,0.33,7.97,0.33,11.96c0,7.31-0.33,14.62-0.66,21.92
		c0,1.33,0.33,11.63-2.99,18.27c-2.32,4.98-7.64,8.3-12.62,9.63c-3.32,1-9.63,1.99-9.63,1.99c8.3,0.66,17.94,2.99,22.25,10.63
		c3.65,6.64,2.99,15.61,3.32,31.89c0,5.98,0.33,11.96,0.33,18.27C112.35,337.76,112.35,347.06,111.69,356.7z M80.79,197.58
		c-0.33-6.31-1.33-9.3-3.32-10.96c-2.33-1.99-5.65-1.99-11.3-1.99H50.9v70.42h11.96c9.63,0,16.61-0.33,17.94-11.96
		c0.66-4.65,1-12.29,1-23.58C81.79,212.2,81.46,204.89,80.79,197.58z M81.79,297.9c-0.33-4.32-0.66-11.29-3.99-14.62
		c-2.66-2.33-6.64-2.66-9.63-2.66H50.9v81.72h15.95c6.98,0,13.29,0.66,14.62-7.97c0.33-3.65,1-19.27,1-32.89
		C82.45,313.51,82.12,305.87,81.79,297.9z"/>
	<path class="st0" d="M126.77,391.24V239.77c0-14.68,11.9-26.57,26.57-26.57h0v178.05H126.77z"/>
	<path class="st0" d="M127.1,179.46v-21.74h26.58v48.31h0C139,206.03,127.1,194.14,127.1,179.46z"/>
	<path class="st0" d="M172.7,391.24V156.72h27.24v234.52H172.7z"/>
	<rect x="220.43" y="156.72" class="st0" width="27.24" height="234.52"/>
	<g>
		<path class="st0" d="M271.33,321.04c4.94-12.35,12.86-25.74,23.74-40.14v-67.7c-14.68,0-26.58,11.9-26.58,26.58v89.38
			C269.33,326.44,270.25,323.74,271.33,321.04z"/>
		<path class="st0" d="M268.83,179.46v-21.74h26.57v48.31h0C280.73,206.03,268.83,194.14,268.83,179.46z"/>
		<g>
			<path class="st0" d="M392.26,287.72c-8.92,16.01-20.6,29.3-35.05,39.86c-14.45,10.57-30.38,18.21-47.79,22.93
				c-0.2,3.37-0.01,6.73,0.58,10.09c0.59,3.37,1.57,6.53,2.96,9.5c1.38,2.97,3.26,5.54,5.63,7.72c2.37,2.18,5.34,3.67,8.89,4.46
				c4.35,1,9.34,0.85,14.98-0.43c5.64-1.28,11.57-3.84,17.81-7.69c6.23-3.85,12.62-8.93,19.15-15.26
				c6.53-6.32,12.97-14.02,19.31-23.12c3.17-4.54,6.04-8.99,8.62-13.34c2.57-4.34,4.95-8.5,7.13-12.45
				c0.79-0.99,1.73-1.53,2.82-1.63c1.09-0.1,2.08,0.15,2.97,0.75c0.89,0.59,1.53,1.39,1.92,2.38c0.39,0.99,0.19,2.18-0.6,3.56
				c-2.78,4.35-5.75,9.09-8.92,14.23c-3.17,5.14-6.69,10.52-10.55,16.15s-8.12,11.26-12.77,16.89c-4.66,5.63-9.85,11.02-15.59,16.15
				c-5.74,5.14-11.28,9.03-16.62,11.7c-5.34,2.66-10.39,4.54-15.14,5.62c-4.75,1.08-9,1.67-12.76,1.77
				c-3.76,0.09-6.82,0.14-9.2,0.14c-13.45-0.02-23.93-3.59-31.43-10.71c-7.51-7.13-11.55-16.82-12.13-29.08
				c-0.39-11.27,1.66-22.49,6.12-33.66c4.46-11.17,11.64-23.27,21.55-36.31c3.17-4.15,7.43-8.64,12.77-13.48
				c5.35-4.84,11.28-9.33,17.81-13.48c6.53-4.15,13.45-7.5,20.78-10.06c7.32-2.56,14.64-3.74,21.96-3.53
				c4.75,0.01,8.85,1.1,12.31,3.28c3.45,2.18,5.97,5.1,7.55,8.76c1.58,3.66,2.02,7.92,1.32,12.76
				C397.95,277,395.82,282.19,392.26,287.72z M310.92,339.83c-0.2,0.4-0.3,0.79-0.3,1.19c16.02-4.53,30.47-11.78,43.33-21.75
				c12.86-9.97,23.26-22.47,31.19-37.49c2.77-5.73,3.47-10.62,2.09-14.68c-1.38-4.05-4.84-5.59-10.38-4.61
				c-8.31,1.58-16.13,5.32-23.45,11.25c-7.33,5.92-13.86,12.74-19.6,20.45c-5.75,7.71-10.6,15.66-14.56,23.86
				C315.28,326.24,312.5,333.51,310.92,339.83z"/>
		</g>
		<g>
			<path class="st0" d="M501.01,192.46c0,0-1.35-7.78-1.35-7.78c-8.66,4.09-18.93,8.88-28.18,13.32
				c-3.62-8.02-11.89-26.35-11.89-26.35l-3.25-7.2c-3.16,2.17-15.49,10.68-23.61,16.27l-11.56-25.2c0,0-3.08-6.72-3.08-6.72
				c-6.81,4.32-13.82,8.69-20.69,13.05c-4.41-8-11.26-20.44-13.14-23.86c-2.39,2.45-7.56,7.78-11.85,12.19
				c-2.26-4.08-4.51-8.16-6.8-12.22l-4.73-8.38c-2.03,3.53-6.17,10.78-9.52,16.62c-4.22-5.39-9.57-12.21-9.57-12.21l-9.84-12.57
				c0,0,1.36,15.76,1.36,15.76c2.86,31.56,5.34,89.95-18.1,113.75c23.29-18.47,28-65.77,27.91-99.2l4.86,6.59l4.37,5.93l4.01-6.39
				l4.03-6.42c3.08,5.91,6.23,11.87,9.27,17.65l5.53-5.38l6.16-5.99c4.05,7.78,9.88,18.96,11.32,21.73
				c6.56-3.89,13.2-7.93,19.76-11.94l11.61,25.79l3.22,7.15c3.27-2.24,15.48-10.61,23.59-16.17c4.85,10.62,13.15,28.85,14.34,31.35
				c0,0,5.98-3.01,5.98-3.01c5.42-2.75,12.59-6.31,18.99-9.56c4.23,34.86-0.99,71.63-18.45,102.32
				c-7.62,13.41-17.67,25.34-29.4,35.44c-5.94,5.03-12.25,9.68-18.9,13.89c32.88-14.71,58.71-43.99,70.21-78.17
				C502.71,249.62,505.24,220.57,501.01,192.46z"/>
			<path class="st0" d="M472.25,262.36c-22.11-28.64-62.47-49.12-97.98-54.15c35.04,17.77,71.37,36.05,102.34,60.41
				C475.23,266.49,473.75,264.43,472.25,262.36z"/>
			<path class="st0" d="M396.9,241.36c22.64,14.94,46.96,26.04,67.93,43.45C453.7,262.02,421.12,245.46,396.9,241.36z"/>
		</g>
	</g>
</g>
</svg>
