<?xml version="1.0" encoding="utf-8"?>
<!-- Generator: Adobe Illustrator 28.0.0, SVG Export Plug-In . SVG Version: 6.00 Build 0)  -->
<svg version="1.1" id="Capa_1" xmlns="http://www.w3.org/2000/svg" xmlns:xlink="http://www.w3.org/1999/xlink" x="0px" y="0px"
	 viewBox="0 0 512 512" style="enable-background:new 0 0 512 512;" xml:space="preserve">
<style type="text/css">
	.st0{fill:#FFFFFF;}
	.st1{fill:#39B54A;}
</style>
<g>
	<path class="st0" d="M101.94,334.71c-0.34,2.72,0,19.07-10.21,27.92c-9.53,7.83-23.15,7.49-34.39,7.49H9V129.76h56.17
		c9.87,0,20.43,0,28.26,7.15c8.51,8.17,8.51,19.41,8.85,40.85c0,4.09,0.34,8.17,0.34,12.26c0,7.49-0.34,14.98-0.68,22.47
		c0,1.36,0.34,11.92-3.06,18.73c-2.38,5.11-7.83,8.51-12.94,9.87c-3.4,1.02-9.87,2.04-9.87,2.04c8.51,0.68,18.38,3.06,22.81,10.89
		c3.74,6.81,3.06,16,3.41,32.68c0,6.13,0.34,12.26,0.34,18.72C102.62,315.31,102.62,324.84,101.94,334.71z M70.28,171.64
		c-0.34-6.47-1.36-9.53-3.4-11.24c-2.38-2.04-5.79-2.04-11.58-2.04H39.64v72.18H51.9c9.87,0,17.02-0.34,18.38-12.26
		c0.68-4.77,1.02-12.6,1.02-24.17C71.3,186.62,70.96,179.13,70.28,171.64z M71.3,274.45c-0.34-4.43-0.68-11.58-4.09-14.98
		c-2.72-2.38-6.81-2.72-9.87-2.72h-17.7v83.75h16.34c7.15,0,13.62,0.68,14.98-8.17c0.34-3.74,1.02-19.75,1.02-33.7
		C71.98,290.46,71.64,282.63,71.3,274.45z"/>
	<path class="st0" d="M117.4,370.12V214.88c0-15.04,12.19-27.24,27.24-27.24h0v182.48H117.4z"/>
	<path class="st0" d="M117.74,153.06v-22.28h27.24v49.52h0C129.94,180.3,117.74,168.11,117.74,153.06z"/>
	<path class="st0" d="M164.48,370.12V129.76h27.92v240.36H164.48z"/>
	<rect x="213.4" y="129.76" class="st0" width="27.92" height="240.36"/>
	<g>
		<path class="st1" d="M265.57,298.17c5.06-12.66,13.18-26.38,24.33-41.14v-69.39c-15.04,0-27.24,12.19-27.24,27.24v91.6
			C263.51,303.71,264.46,300.94,265.57,298.17z"/>
		<path class="st1" d="M263,153.06v-22.28h27.24v49.52h0C275.2,180.3,263,168.11,263,153.06z"/>
		<g>
			<path class="st1" d="M389.5,264.02c-9.14,16.41-21.12,30.03-35.92,40.85c-14.81,10.83-31.14,18.66-48.98,23.51
				c-0.21,3.45-0.01,6.89,0.6,10.34c0.6,3.45,1.61,6.69,3.03,9.73c1.41,3.04,3.34,5.68,5.77,7.91c2.43,2.24,5.47,3.76,9.11,4.57
				c4.46,1.02,9.58,0.88,15.35-0.44c5.78-1.31,11.86-3.94,18.25-7.88c6.39-3.95,12.93-9.15,19.63-15.64
				c6.7-6.48,13.29-14.37,19.79-23.69c3.25-4.66,6.19-9.21,8.83-13.67c2.64-4.45,5.07-8.71,7.31-12.76
				c0.81-1.01,1.77-1.57,2.89-1.67c1.11-0.1,2.13,0.16,3.04,0.76c0.91,0.61,1.56,1.42,1.97,2.43c0.4,1.02,0.2,2.23-0.61,3.65
				c-2.85,4.46-5.89,9.32-9.14,14.58c-3.25,5.27-6.85,10.78-10.81,16.56c-3.96,5.77-8.33,11.54-13.09,17.31
				c-4.77,5.77-10.1,11.29-15.98,16.55c-5.89,5.27-11.56,9.26-17.04,11.99c-5.48,2.73-10.65,4.65-15.51,5.76
				c-4.87,1.11-9.23,1.71-13.07,1.81c-3.85,0.1-6.99,0.14-9.42,0.14c-13.78-0.02-24.52-3.68-32.21-10.98
				c-7.7-7.31-11.84-17.24-12.43-29.81c-0.39-11.55,1.7-23.05,6.27-34.5c4.57-11.44,11.93-23.85,22.08-37.22
				c3.25-4.25,7.61-8.86,13.09-13.82c5.48-4.96,11.56-9.56,18.26-13.81c6.69-4.25,13.79-7.69,21.29-10.31
				c7.5-2.62,15-3.83,22.5-3.62c4.86,0.01,9.07,1.13,12.61,3.36c3.54,2.24,6.12,5.23,7.74,8.98c1.62,3.76,2.07,8.11,1.35,13.08
				C395.33,253.03,393.15,258.35,389.5,264.02z M306.13,317.43c-0.2,0.41-0.31,0.81-0.31,1.22c16.42-4.64,31.22-12.07,44.41-22.3
				c13.18-10.22,23.84-23.03,31.97-38.42c2.84-5.87,3.56-10.89,2.15-15.05c-1.42-4.15-4.96-5.73-10.64-4.72
				c-8.52,1.61-16.53,5.45-24.03,11.53c-7.51,6.07-14.2,13.06-20.09,20.95c-5.89,7.9-10.86,16.05-14.93,24.46
				C310.61,303.5,307.76,310.95,306.13,317.43z"/>
		</g>
		<g>
			<path class="st1" d="M500.96,166.39c0,0-1.39-7.97-1.39-7.97c-8.88,4.19-19.4,9.1-28.88,13.65
				c-3.71-8.22-12.19-27.01-12.19-27.01l-3.33-7.38c-3.23,2.23-15.88,10.94-24.19,16.68l-11.85-25.82c0,0-3.16-6.88-3.16-6.88
				c-6.98,4.43-14.17,8.9-21.21,13.37c-4.52-8.2-11.54-20.94-13.47-24.45c-2.45,2.51-7.75,7.97-12.15,12.49
				c-2.31-4.18-4.62-8.36-6.97-12.52l-4.85-8.59c-2.08,3.62-6.33,11.05-9.75,17.03c-4.33-5.52-9.8-12.52-9.8-12.52l-10.09-12.88
				c0,0,1.39,16.15,1.39,16.15c2.93,32.34,5.47,92.19-18.55,116.58c23.87-18.93,28.7-67.41,28.6-101.67l4.98,6.75l4.48,6.07
				l4.11-6.54l4.13-6.58c3.16,6.06,6.38,12.17,9.5,18.09l5.67-5.51l6.31-6.14c4.16,7.98,10.12,19.43,11.6,22.27
				c6.72-3.99,13.53-8.13,20.25-12.24l11.9,26.43l3.3,7.33c3.35-2.3,15.86-10.87,24.17-16.58c4.97,10.88,13.47,29.56,14.7,32.13
				c0,0,6.13-3.08,6.13-3.08c5.55-2.82,12.9-6.46,19.46-9.8c4.33,35.73-1.02,73.42-18.91,104.87c-7.8,13.74-18.11,25.98-30.13,36.32
				c-6.09,5.15-12.56,9.92-19.37,14.23c33.69-15.07,60.17-45.08,71.96-80.11C502.7,224.97,505.29,195.19,500.96,166.39z"/>
			<path class="st1" d="M471.48,238.03c-22.66-29.36-64.02-50.34-100.42-55.5c35.91,18.21,73.14,36.95,104.89,61.91
				C474.54,242.26,473.02,240.15,471.48,238.03z"/>
			<path class="st1" d="M394.26,216.51c23.2,15.32,48.13,26.69,69.62,44.53C452.47,237.68,419.08,220.71,394.26,216.51z"/>
		</g>
	</g>
</g>
</svg>
