<?xml version="1.0" encoding="utf-8"?>
<!-- Generator: Adobe Illustrator 28.0.0, SVG Export Plug-In . SVG Version: 6.00 Build 0)  -->
<svg version="1.1" id="Capa_1" xmlns="http://www.w3.org/2000/svg" xmlns:xlink="http://www.w3.org/1999/xlink" x="0px" y="0px"
	 viewBox="0 0 512 512" style="enable-background:new 0 0 512 512;" xml:space="preserve">
<style type="text/css">
	.st0{fill:#39B54A;}
</style>
<path d="M103.51,361.11c-0.34,2.74,0,19.18-10.27,28.09c-9.59,7.88-23.29,7.54-34.6,7.54H10V154.91h56.52c9.93,0,20.55,0,28.43,7.19
	c8.56,8.22,8.56,19.52,8.91,41.1c0,4.11,0.34,8.22,0.34,12.33c0,7.54-0.34,15.07-0.68,22.61c0,1.37,0.34,11.99-3.08,18.84
	c-2.4,5.14-7.88,8.56-13.01,9.93c-3.43,1.03-9.93,2.06-9.93,2.06c8.56,0.68,18.49,3.08,22.95,10.96c3.77,6.85,3.08,16.1,3.43,32.88
	c0,6.17,0.34,12.33,0.34,18.84C104.19,341.59,104.19,351.18,103.51,361.11z M71.65,197.04c-0.34-6.51-1.37-9.59-3.43-11.3
	c-2.4-2.06-5.82-2.06-11.65-2.06H40.83v72.61h12.33c9.93,0,17.12-0.34,18.5-12.33c0.68-4.79,1.03-12.67,1.03-24.32
	C72.68,212.12,72.34,204.58,71.65,197.04z M72.68,300.49c-0.34-4.45-0.68-11.65-4.11-15.07c-2.74-2.4-6.85-2.74-9.93-2.74H40.83
	v84.26h16.44c7.19,0,13.7,0.68,15.07-8.22c0.34-3.77,1.03-19.87,1.03-33.91C73.37,316.58,73.02,308.71,72.68,300.49z"/>
<path d="M119.06,396.73V240.54c0-15.13,12.27-27.4,27.4-27.4h0v183.59H119.06z"/>
<path d="M119.4,178.36v-22.41h27.4v49.82h0C131.67,205.76,119.4,193.49,119.4,178.36z"/>
<path d="M166.42,396.73V154.91h28.09v241.82H166.42z"/>
<rect x="215.64" y="154.91" width="28.09" height="241.82"/>
<g>
	<path class="st0" d="M268.12,324.34c5.09-12.74,13.26-26.54,24.48-41.39v-69.81c-15.13,0-27.4,12.27-27.4,27.4v92.16
		C266.05,329.91,267.01,327.13,268.12,324.34z"/>
	<path class="st0" d="M265.55,178.36v-22.42h27.4v49.82h0C277.81,205.76,265.55,193.49,265.55,178.36z"/>
	<g>
		<path class="st0" d="M392.81,289.98c-9.2,16.51-21.25,30.21-36.14,41.1c-14.9,10.89-31.33,18.77-49.27,23.65
			c-0.21,3.47-0.01,6.93,0.6,10.4c0.61,3.47,1.62,6.73,3.05,9.79c1.42,3.06,3.36,5.72,5.8,7.96c2.44,2.25,5.5,3.78,9.17,4.6
			c4.48,1.03,9.63,0.88,15.45-0.44c5.81-1.32,11.93-3.96,18.36-7.93c6.43-3.97,13.01-9.21,19.75-15.73
			c6.74-6.52,13.37-14.46,19.91-23.83c3.27-4.68,6.23-9.27,8.89-13.75c2.65-4.48,5.1-8.76,7.36-12.84c0.81-1.02,1.78-1.57,2.91-1.68
			c1.12-0.1,2.14,0.16,3.06,0.77c0.92,0.61,1.57,1.43,1.98,2.45c0.4,1.02,0.2,2.25-0.62,3.67c-2.86,4.48-5.93,9.37-9.19,14.67
			c-3.27,5.3-6.89,10.85-10.88,16.66c-3.98,5.81-8.38,11.61-13.17,17.42c-4.8,5.81-10.16,11.36-16.08,16.65
			c-5.92,5.3-11.63,9.32-17.14,12.06c-5.51,2.75-10.71,4.68-15.61,5.79c-4.9,1.11-9.28,1.72-13.15,1.82
			c-3.88,0.1-7.03,0.14-9.48,0.14c-13.87-0.02-24.67-3.7-32.41-11.05c-7.74-7.35-11.91-17.34-12.51-29.99
			c-0.4-11.62,1.71-23.19,6.31-34.71c4.6-11.51,12-24,22.22-37.44c3.27-4.28,7.66-8.91,13.17-13.9c5.51-4.99,11.63-9.62,18.37-13.9
			c6.73-4.27,13.87-7.73,21.42-10.38c7.54-2.64,15.09-3.85,22.64-3.64c4.89,0.01,9.12,1.13,12.69,3.38
			c3.56,2.25,6.16,5.26,7.79,9.03c1.63,3.78,2.08,8.16,1.36,13.15C398.68,278.93,396.48,284.28,392.81,289.98z M308.94,343.72
			c-0.21,0.41-0.31,0.82-0.31,1.22c16.52-4.67,31.41-12.15,44.68-22.43c13.26-10.28,23.98-23.17,32.16-38.65
			c2.86-5.91,3.58-10.95,2.16-15.14c-1.42-4.18-4.99-5.76-10.7-4.75c-8.57,1.62-16.63,5.49-24.18,11.6
			c-7.55,6.11-14.29,13.14-20.21,21.08c-5.93,7.95-10.93,16.15-15.02,24.61C313.44,329.71,310.58,337.2,308.94,343.72z"/>
	</g>
	<g>
		<path class="st0" d="M504.95,191.76c0,0-1.4-8.02-1.4-8.02c-8.93,4.21-19.51,9.16-29.06,13.73c-3.73-8.27-12.26-27.17-12.26-27.17
			l-3.35-7.42c-3.25,2.24-15.97,11.01-24.34,16.78l-11.92-25.98c0,0-3.18-6.93-3.18-6.93c-7.02,4.45-14.25,8.96-21.34,13.45
			c-4.54-8.25-11.61-21.07-13.55-24.6c-2.46,2.53-7.8,8.02-12.22,12.57c-2.33-4.2-4.65-8.41-7.01-12.6l-4.88-8.64
			c-2.09,3.64-6.36,11.11-9.81,17.14c-4.35-5.56-9.86-12.59-9.86-12.59l-10.15-12.96c0,0,1.4,16.25,1.4,16.25
			c2.95,32.54,5.51,92.75-18.66,117.29c24.02-19.05,28.88-67.82,28.78-102.29l5.01,6.79l4.51,6.11l4.13-6.58l4.16-6.62
			c3.17,6.09,6.42,12.24,9.55,18.2l5.7-5.55l6.35-6.17c4.18,8.02,10.18,19.55,11.68,22.41c6.76-4.01,13.61-8.18,20.38-12.31
			l11.97,26.59l3.32,7.37c3.37-2.31,15.96-10.94,24.32-16.68c5,10.95,13.55,29.74,14.79,32.32c0,0,6.17-3.1,6.17-3.1
			c5.59-2.84,12.98-6.5,19.58-9.85c4.36,35.95-1.02,73.86-19.03,105.5c-7.85,13.82-18.22,26.13-30.32,36.54
			c-6.12,5.18-12.63,9.98-19.49,14.32c33.9-15.17,60.54-45.36,72.4-80.6C506.7,250.7,509.3,220.74,504.95,191.76z"/>
		<path class="st0" d="M475.29,263.84c-22.8-29.53-64.41-50.65-101.03-55.83c36.13,18.32,73.59,37.17,105.53,62.29
			C478.36,268.1,476.84,265.97,475.29,263.84z"/>
		<path class="st0" d="M397.6,242.18c23.34,15.41,48.42,26.85,70.04,44.8C456.17,263.48,422.57,246.41,397.6,242.18z"/>
	</g>
</g>
</svg>
